<svg xmlns="http://www.w3.org/2000/svg" width="76" height="14" viewBox="0 0 76 14">
    <g fill="#F60" fill-rule="evenodd">
        <path d="M7.761 1.41l1.487 3.028 3.324.486c.697.102.975.962.47 1.456l-2.405 2.358.568 3.329c.12.697-.609 1.229-1.232.9L7 11.395l-2.973 1.572c-.623.329-1.351-.203-1.232-.9l.568-3.33L.957 6.38c-.504-.494-.226-1.354.47-1.456l3.325-.486L6.24 1.41c.311-.634 1.21-.634 1.522 0zM22.761 1.41l1.487 3.028 3.324.486c.697.102.975.962.47 1.456l-2.405 2.358.568 3.329c.12.697-.609 1.229-1.232.9L22 11.395l-2.973 1.572c-.623.329-1.351-.203-1.232-.9l.568-3.33-2.406-2.357c-.504-.494-.226-1.354.47-1.456l3.325-.486L21.24 1.41c.311-.634 1.21-.634 1.522 0zM66.529 4.299L68.163.987c.342-.694 1.332-.694 1.674 0l1.634 3.312 3.655.53c.765.112 1.071 1.053.517 1.593L73 8.999l.624 3.64c.13.762-.67 1.344-1.354.984L69 11.904l-3.269 1.719c-.684.36-1.485-.222-1.354-.984l.624-3.64-2.644-2.577c-.554-.54-.248-1.481.517-1.592l3.655-.531zM69 1.4l-1.852 3.752-4.14.601 2.996 2.92-.707 4.124L69 10.85l3.703 1.947-.707-4.124 2.996-2.92-4.14-.601L69 1.4zM53.761 1.41l1.487 3.028 3.324.486c.697.102.975.962.47 1.456l-2.405 2.358.568 3.329c.12.697-.609 1.229-1.232.9L53 11.395l-2.973 1.572c-.623.329-1.351-.203-1.232-.9l.568-3.33-2.406-2.357c-.504-.494-.226-1.354.47-1.456l3.325-.486L52.24 1.41c.311-.634 1.21-.634 1.522 0zM37.761 1.41l1.487 3.028 3.324.486c.697.102.975.962.47 1.456l-2.405 2.358.568 3.329c.12.697-.609 1.229-1.232.9L37 11.395l-2.973 1.572c-.623.329-1.351-.203-1.232-.9l.568-3.33-2.406-2.357c-.504-.494-.226-1.354.47-1.456l3.325-.486L36.24 1.41c.311-.634 1.21-.634 1.522 0z"/>
        <path d="M69.214 11.444l-4.202 1.57.676-4.209-3.092-3.127 4.269-.998L69 .859l.214.141 1.92 3.89v7.484l-1.92-.93z"/>
    </g>
</svg>
