<svg xmlns="http://www.w3.org/2000/svg" width="60" height="60" viewBox="0 0 60 60">
    <path fill="#F60" fill-rule="evenodd" d="M0 38.397c0 2.208 1.761 4.005 3.929 4.005 2.164 0 3.926-1.797 3.926-4.005 0-1.79-1.156-3.307-2.744-3.82v-7.359l5.868 2.283v10.531c0 .36.156.7.428.93C11.747 41.25 19.839 48 30 48s18.254-6.75 18.594-7.038c.27-.23.426-.57.426-.93v-6.62l-15.146 5.89a1.78 1.78 0 0 1-2.312-1.06c-.355-.943.111-2.002 1.036-2.36l26.687-10.378c.43-.193.714-.62.714-1.101 0-.502-.302-.95-.762-1.129L30.422 12.08a1.168 1.168 0 0 0-.843 0L.762 23.274A1.207 1.207 0 0 0 0 24.403c0 .5.304.95.762 1.128l1.982.77v8.276C1.155 35.09 0 36.607 0 38.397"/>
</svg>
