<svg xmlns="http://www.w3.org/2000/svg" xmlns:xlink="http://www.w3.org/1999/xlink" width="60" height="60" viewBox="0 0 60 60">
    <defs>
        <path id="a" d="M54 0v27c0 6.627-5.373 12-12 12H0V0h54zM27.374 12.375a1.28 1.28 0 0 0-.309 1.307l6.816 20.444a1.275 1.275 0 0 0 1.29.871 1.276 1.276 0 0 0 1.173-1.02l1.966-9.67c.102-.502.494-.895.998-.997l9.669-1.966a1.275 1.275 0 1 0 .15-2.462l-20.445-6.815a1.268 1.268 0 0 0-1.308.308zM6.143 3.9a2 2 0 1 0-.001 3.999 2 2 0 0 0 0-3.999zm8 0a2 2 0 1 0-.001 3.999 2 2 0 0 0 0-3.999z"/>
    </defs>
    <use fill="#F60" fill-rule="evenodd" transform="translate(3 10)" xlink:href="#a"/>
</svg>
