<svg xmlns="http://www.w3.org/2000/svg" width="60" height="60" viewBox="0 0 60 60">
    <path fill="#F60" fill-rule="evenodd" d="M21.422 10c3.427 0 6.42 1.844 8.06 4.592a.6.6 0 0 0 1.036 0c1.59-2.662 4.446-4.476 7.739-4.587l.32-.005h20.81c.306 0 .558.223.605.514l.008.1V40.29a.611.611 0 0 1-.293.523l-.081.042L30.034 50.97V51L30 50.986l-.034.014v-.029L.373 40.856a.61.61 0 0 1-.366-.473L0 40.29V10.614c0-.305.221-.558.513-.606l.1-.008h20.81zm34.733 3.39H36.97l-.105.007a.77.77 0 0 0-.657.66l-.007.106v24.194l.008.114a.769.769 0 0 0 1.005.617l.116-.05 7.24-3.852-2.022-1.077-.1-.062a.943.943 0 0 1-.288-1.21.937.937 0 0 1 1.16-.437l.107.049 12.394 6.598.102.042a.76.76 0 0 0 .63-.071.769.769 0 0 0 .363-.547l.008-.114V14.163l-.007-.105a.77.77 0 0 0-.762-.668zM22.317 30.691H7.287l-.14.006a1.644 1.644 0 0 0-1.499 1.64c0 .86.66 1.566 1.498 1.638l.142.006h15.03l.141-.006c.84-.072 1.5-.778 1.5-1.638 0-.91-.735-1.646-1.642-1.646zm24.541-14.466l1.569 4.84a.31.31 0 0 0 .295.215h5.076c.3 0 .426.387.183.565l-4.107 2.991a.313.313 0 0 0-.112.35l1.568 4.84c.093.287-.235.526-.479.348l-4.106-2.99a.307.307 0 0 0-.365 0l-4.106 2.99c-.244.178-.573-.061-.479-.348l1.568-4.84a.315.315 0 0 0-.113-.35l-4.106-2.991c-.243-.178-.119-.565.183-.565h5.076a.31.31 0 0 0 .295-.216l1.568-4.84a.311.311 0 0 1 .592 0zm-24.54 7.495H7.287l-.142.007a1.644 1.644 0 0 0-1.498 1.639c0 .86.66 1.566 1.498 1.638l.142.006h15.03l.141-.006c.84-.072 1.5-.778 1.5-1.638 0-.909-.735-1.646-1.642-1.646zm0-6.97H7.288l-.142.006c-.84.072-1.499.777-1.499 1.638 0 .861.66 1.568 1.5 1.64l.14.006h15.03l.142-.006a1.644 1.644 0 0 0 1.498-1.64c0-.908-.734-1.644-1.64-1.644z"/>
</svg>
