<svg xmlns="http://www.w3.org/2000/svg" width="116" height="116" viewBox="0 0 116 116">
    <g fill="#F60" fill-rule="evenodd">
        <path d="M90.81 84.726c-3.837 5.654-5.828 10.263-8.384 12.06-2.804 1.97-5.309.998-6.571 1.767-.209.126-.464-.012-.455-.277.15-3.823.773-8.696 1.078-12.364.628-7.56.876-12.455.949-14.064.013-.26.263-.403.46-.255 1.283.975 5.108 3.94 7.464 6.459 4.118 4.4 5.86 6.087 5.46 6.674M42.079 98.553c-1.263-.769-3.768.203-6.572-1.768-2.555-1.796-4.545-6.405-8.385-12.059-.4-.587 1.342-2.274 5.46-6.674 2.357-2.52 6.181-5.484 7.466-6.459.195-.148.448-.005.459.255.072 1.61.32 6.504.948 14.064.307 3.668.929 8.541 1.078 12.364.009.265-.244.403-.454.277m45.759-31.676c-1.124-1.38-4.341-7.524-9.097-9.693-4.22-1.925-9.445-.69-13.279-2.531-1.006-.484-1.323-2.288-1.059-4.776.044-.043.074-.093.118-.139.524-.01.927-.036 1.043-.148.31-.306-.514-.509.62-4.053.208-.647.922-1.528 1.012-2.406.16.037.38.055.554-.105.7-.643 1.824-4.506 1.217-5.886-.135-.3-.288-.342-.438-.303.42-1.482-.095-2.903-.186-4.703-.153-3.09-2.197-5.26-5.145-6.28a14.027 14.027 0 0 0-3.396-.71c-.125-.009-1.476-.032-2.102.037-1.022.132-1.952.363-2.967.673-2.985.912-4.99 3.19-5.145 6.28-.088 1.8-.603 3.22-.186 4.703-.148-.039-.303.002-.435.303-.61 1.38.514 5.243 1.214 5.886.174.16.394.142.556.105.088.878.805 1.759 1.011 2.406 1.133 3.544.31 3.747.619 4.053.118.112.519.139 1.045.148.042.046.072.096.116.14.264 2.487-.051 4.291-1.057 4.775-3.836 1.84-9.058.606-13.28 2.531-4.757 2.169-7.974 8.313-9.098 9.693-1.12 1.38-12.222 12.95-12.664 16.743-.422 3.586 3.898 8.721 7.389 11.62 4.49 3.724 8.483 6.88 9.02 7.724 1.03 1.622 4.427 4.256 8.338 4.56.426.033.899-.665 1.337-1.52-.014.103-.19 2.333-.204 2.431-.436 2.712-.698 4.502-.902 7.143a.331.331 0 0 0 .322.354l15.842.066c.003 0 .005.002.005.002h.777c.002 0 .004-.002.009-.002l15.842-.066a.331.331 0 0 0 .32-.354c-.202-2.64-.464-4.431-.902-7.143-.014-.098-.19-2.328-.206-2.43.443.854.915 1.552 1.342 1.518 3.91-.303 7.305-2.937 8.335-4.559.537-.844 4.533-4 9.02-7.724 3.49-2.899 7.814-8.034 7.392-11.62-.445-3.792-11.545-15.364-12.667-16.743M96.158 38.667c1.35 0 2.442.949 2.442 2.12v3.49c0 1.174-1.092 2.123-2.442 2.123H85.067v-7.733zm-63.291 0V46.4H21.773c-1.348 0-2.44-.95-2.44-2.12V40.79c0-1.171 1.092-2.122 2.44-2.122h11.094zM82.55 14.183a2.223 2.223 0 0 1 3.14 0l2.592 2.593a2.22 2.22 0 0 1 0 3.14l-.496.497h.001l-3.559 3.559-1.525 1.525-1.571 1.57-5.733-5.731 5.55-5.55zm-50.378.023a2.29 2.29 0 0 1 3.243 0l5.496 5.495 1.621 1.622-4.122 4.123-1.62 1.62-7.119-7.115a2.292 2.292 0 0 1 0-3.244zM61.431 3.32c1.199 0 2.17 1.038 2.17 2.315v10.527h-7.912V5.635c0-1.277.971-2.315 2.168-2.315z"/>
    </g>
</svg>
