<svg xmlns="http://www.w3.org/2000/svg" width="116" height="116" viewBox="0 0 116 116">
    <path fill="#F60" fill-rule="evenodd" d="M79.625 43.173c.996 0 1.803.81 1.803 1.807v65.984c0 .633-.33 1.22-.872 1.548a1.8 1.8 0 0 1-1.717.07L49.756 97.138a2.202 2.202 0 0 0-2.977.91 2.203 2.203 0 0 0 .912 2.976l4.746 2.517-16.99 9.015a1.807 1.807 0 0 1-1.777-.045 1.808 1.808 0 0 1-.877-1.548V44.98c0-.997.81-1.807 1.806-1.807zM57.847 2.468l3.893 11.984c.102.318.4.534.736.534h12.6c.748 0 1.058.956.454 1.399l-10.194 7.404a.774.774 0 0 0-.281.865l3.893 11.984c.234.713-.583 1.304-1.187.864l-10.195-7.407a.776.776 0 0 0-.91 0l-10.194 7.407c-.604.44-1.419-.151-1.188-.864l3.894-11.984a.774.774 0 0 0-.281-.865l-10.192-7.404c-.61-.443-.296-1.4.452-1.4h12.6a.774.774 0 0 0 .735-.533l3.894-11.984c.23-.713 1.24-.713 1.47 0zm26.128 13.854l2.36 7.265a.47.47 0 0 0 .446.323h7.64c.452 0 .641.582.273.85l-6.18 4.49a.46.46 0 0 0-.168.522l2.36 7.265a.47.47 0 0 1-.723.524l-6.177-4.49a.47.47 0 0 0-.551 0l-6.18 4.49c-.367.266-.862-.092-.72-.524l2.358-7.265a.46.46 0 0 0-.17-.522l-6.179-4.49a.47.47 0 0 1 .276-.85h7.638a.468.468 0 0 0 .445-.323l2.36-7.265a.469.469 0 0 1 .892 0zm-52.837 0l2.361 7.265a.472.472 0 0 0 .445.323h7.64c.455 0 .641.582.276.85l-6.18 4.49a.466.466 0 0 0-.17.522l2.36 7.265c.141.432-.353.79-.721.524l-6.18-4.49a.47.47 0 0 0-.551 0l-6.18 4.49c-.367.266-.862-.092-.72-.524l2.36-7.265a.466.466 0 0 0-.171-.522l-6.18-4.49a.47.47 0 0 1 .276-.85h7.638a.465.465 0 0 0 .445-.323l2.363-7.265a.467.467 0 0 1 .89 0z"/>
</svg>
