<svg xmlns="http://www.w3.org/2000/svg" width="68" height="13" viewBox="0 0 68 13">
    <g fill="none" fill-rule="evenodd">
        <g fill="#FFC300">
            <g>
                <g>
                    <g>
                        <g>
                            <path d="M6.653 1.2l1.274 2.597 2.85.416c.596.088.834.825.402 1.249l-2.061 2.02.486 2.854c.102.598-.522 1.054-1.055.771L6 9.76l-2.549 1.347c-.533.283-1.157-.173-1.055-.771l.486-2.854-2.061-2.02C.389 5.038.627 4.3 1.224 4.213l2.85-.416 1.273-2.596c.267-.544 1.039-.544 1.306 0z" transform="translate(-893.000000, -3325.000000) translate(0.000000, 2778.000000) translate(410.000000, 235.000000) translate(483.000000, 312.189950) translate(14.000000, 0.007035)"/>
                        </g>
                        <g>
                            <path d="M6.653 1.208l1.274 2.596 2.85.416c.596.088.834.825.402 1.249l-2.061 2.02.486 2.854c.102.598-.522 1.054-1.055.771L6 9.767l-2.549 1.347c-.533.283-1.157-.173-1.055-.771l.486-2.854L.821 5.47c-.432-.424-.194-1.161.403-1.249l2.85-.416 1.273-2.596c.267-.544 1.039-.544 1.306 0z" transform="translate(-893.000000, -3325.000000) translate(0.000000, 2778.000000) translate(410.000000, 235.000000) translate(483.000000, 312.189950) translate(28.000000, 0.000000)"/>
                        </g>
                        <g>
                            <g>
                                <path d="M3.882 3.684l1.4-2.838C5.577.25 6.425.25 6.718.846l1.401 2.838 3.133.456c.656.095.918.901.443 1.364l-2.267 2.21.536 3.12c.112.653-.574 1.151-1.161.843L6 10.204l-2.802 1.473c-.587.308-1.273-.19-1.16-.844l.535-3.12L.306 5.505C-.17 5.041.093 4.235.749 4.14l3.133-.456zM6 1.2L4.413 4.416.864 4.93l2.568 2.503-.606 3.535L6 9.3l3.174 1.669-.606-3.535 2.568-2.503-3.549-.515L6 1.2z" transform="translate(-893.000000, -3325.000000) translate(0.000000, 2778.000000) translate(410.000000, 235.000000) translate(483.000000, 312.189950) translate(56.000000, 0.000000) translate(-0.000000, -0.000000)"/>
                            </g>
                            <path d="M2.582 11.154l.579-3.607-2.65-2.68L4.17 4.01 6 .736l.183.121V.736v9.073l-3.601 1.345z" transform="translate(-893.000000, -3325.000000) translate(0.000000, 2778.000000) translate(410.000000, 235.000000) translate(483.000000, 312.189950) translate(56.000000, 0.000000)"/>
                        </g>
                        <g>
                            <path d="M6.653 1.208l1.274 2.596 2.85.416c.596.088.834.825.402 1.249l-2.061 2.02.486 2.854c.102.598-.522 1.054-1.055.771L6 9.767l-2.549 1.347c-.533.283-1.157-.173-1.055-.771l.486-2.854L.821 5.47c-.432-.424-.194-1.161.403-1.249l2.85-.416 1.273-2.596c.267-.544 1.039-.544 1.306 0z" transform="translate(-893.000000, -3325.000000) translate(0.000000, 2778.000000) translate(410.000000, 235.000000) translate(483.000000, 312.189950) translate(42.000000, 0.000000)"/>
                        </g>
                        <g>
                            <path d="M6.653 1.208l1.274 2.596 2.85.416c.596.088.834.825.402 1.249l-2.061 2.02.486 2.854c.102.598-.522 1.054-1.055.771L6 9.767l-2.549 1.347c-.533.283-1.157-.173-1.055-.771l.486-2.854L.821 5.47c-.432-.424-.194-1.161.403-1.249l2.85-.416 1.273-2.596c.267-.544 1.039-.544 1.306 0z" transform="translate(-893.000000, -3325.000000) translate(0.000000, 2778.000000) translate(410.000000, 235.000000) translate(483.000000, 312.189950) translate(-0.000000, -0.000000)"/>
                        </g>
                    </g>
                </g>
            </g>
        </g>
    </g>
</svg>
